G04*
G04 #@! TF.GenerationSoftware,Altium Limited,Altium Designer,21.9.1 (22)*
G04*
G04 Layer_Physical_Order=2*
G04 Layer_Color=16711680*
%FSLAX25Y25*%
%MOIN*%
G70*
G04*
G04 #@! TF.SameCoordinates,01D30D3D-4D25-4DD3-B430-8D43D7E97BEB*
G04*
G04*
G04 #@! TF.FilePolarity,Positive*
G04*
G01*
G75*
%ADD10C,0.00787*%
%ADD12C,0.01968*%
%ADD45C,0.11811*%
%ADD46C,0.06299*%
%ADD47R,0.06299X0.06299*%
%ADD48C,0.04724*%
%ADD49R,0.04724X0.04724*%
%ADD50C,0.02756*%
G36*
X116103Y2007D02*
X2007D01*
X2007Y194843D01*
X116103D01*
X116103Y2007D01*
D02*
G37*
%LPC*%
G36*
X47835Y183833D02*
Y177756D01*
X53911D01*
X53840Y178477D01*
X53457Y179739D01*
X52836Y180902D01*
X52000Y181921D01*
X50981Y182757D01*
X49818Y183379D01*
X48556Y183761D01*
X47835Y183833D01*
D02*
G37*
G36*
X46654D02*
X45932Y183761D01*
X44670Y183379D01*
X43508Y182757D01*
X42489Y181921D01*
X41652Y180902D01*
X41031Y179739D01*
X40648Y178477D01*
X40577Y177756D01*
X46654D01*
Y183833D01*
D02*
G37*
G36*
X98425Y183693D02*
X97152Y183567D01*
X95927Y183196D01*
X94799Y182593D01*
X93810Y181781D01*
X92998Y180792D01*
X92395Y179663D01*
X92023Y178439D01*
X91898Y177165D01*
X92023Y175892D01*
X92395Y174667D01*
X92998Y173539D01*
X93810Y172550D01*
X94799Y171738D01*
X95927Y171135D01*
X97152Y170763D01*
X98425Y170638D01*
X99699Y170763D01*
X100923Y171135D01*
X102052Y171738D01*
X103041Y172550D01*
X103853Y173539D01*
X104456Y174667D01*
X104827Y175892D01*
X104953Y177165D01*
X104827Y178439D01*
X104456Y179663D01*
X103853Y180792D01*
X103041Y181781D01*
X102052Y182593D01*
X100923Y183196D01*
X99699Y183567D01*
X98425Y183693D01*
D02*
G37*
G36*
X19685D02*
X18412Y183567D01*
X17187Y183196D01*
X16059Y182593D01*
X15069Y181781D01*
X14258Y180792D01*
X13654Y179663D01*
X13283Y178439D01*
X13158Y177165D01*
X13283Y175892D01*
X13654Y174667D01*
X14258Y173539D01*
X15069Y172550D01*
X16059Y171738D01*
X17187Y171135D01*
X18412Y170763D01*
X19685Y170638D01*
X20958Y170763D01*
X22183Y171135D01*
X23312Y171738D01*
X24301Y172550D01*
X25113Y173539D01*
X25716Y174667D01*
X26087Y175892D01*
X26212Y177165D01*
X26087Y178439D01*
X25716Y179663D01*
X25113Y180792D01*
X24301Y181781D01*
X23312Y182593D01*
X22183Y183196D01*
X20958Y183567D01*
X19685Y183693D01*
D02*
G37*
G36*
X46654Y176575D02*
X40577D01*
X40648Y175853D01*
X41031Y174592D01*
X41652Y173429D01*
X42489Y172410D01*
X43508Y171573D01*
X44670Y170952D01*
X45932Y170569D01*
X46654Y170498D01*
Y176575D01*
D02*
G37*
G36*
X53911D02*
X47835D01*
Y170498D01*
X48556Y170569D01*
X49818Y170952D01*
X50981Y171573D01*
X52000Y172410D01*
X52836Y173429D01*
X53457Y174592D01*
X53840Y175853D01*
X53911Y176575D01*
D02*
G37*
G36*
X70866Y183693D02*
X69593Y183567D01*
X68368Y183196D01*
X67240Y182593D01*
X66250Y181781D01*
X65439Y180792D01*
X64836Y179663D01*
X64464Y178439D01*
X64339Y177165D01*
X64464Y175892D01*
X64836Y174667D01*
X65275Y173845D01*
X40517Y149087D01*
X22957Y131527D01*
X11433D01*
X11061Y131775D01*
X10293Y131928D01*
X9525Y131775D01*
X8874Y131341D01*
X8439Y130689D01*
X8286Y129921D01*
X8439Y129153D01*
X8874Y128502D01*
X9525Y128067D01*
X10293Y127914D01*
X11061Y128067D01*
X11433Y128316D01*
X23622D01*
X23622Y128316D01*
X24237Y128438D01*
X24757Y128786D01*
X39585Y143613D01*
X40047Y143422D01*
Y124270D01*
X39798Y123898D01*
X39645Y123130D01*
X39798Y122362D01*
X40233Y121711D01*
X40884Y121276D01*
X41652Y121123D01*
X42420Y121276D01*
X43071Y121711D01*
X43507Y122362D01*
X43659Y123130D01*
X43507Y123898D01*
X43258Y124270D01*
Y147286D01*
X67546Y171574D01*
X68368Y171135D01*
X69261Y170864D01*
Y148209D01*
X69261Y148209D01*
X69383Y147594D01*
X69731Y147073D01*
X87212Y129592D01*
X87299Y129153D01*
X87734Y128502D01*
X88385Y128067D01*
X89153Y127914D01*
X89922Y128067D01*
X90573Y128502D01*
X91008Y129153D01*
X91161Y129921D01*
X91008Y130689D01*
X90573Y131341D01*
X89922Y131775D01*
X89483Y131863D01*
X72472Y148874D01*
Y170864D01*
X73364Y171135D01*
X74493Y171738D01*
X75482Y172550D01*
X76294Y173539D01*
X76897Y174667D01*
X77268Y175892D01*
X77394Y177165D01*
X77268Y178439D01*
X76897Y179663D01*
X76294Y180792D01*
X75482Y181781D01*
X74493Y182593D01*
X73364Y183196D01*
X72140Y183567D01*
X70866Y183693D01*
D02*
G37*
G36*
X47244Y88621D02*
X46476Y88468D01*
X45825Y88033D01*
X45390Y87382D01*
X45237Y86614D01*
X45335Y86124D01*
X32361Y73150D01*
X32144Y72825D01*
X32067Y72441D01*
Y43173D01*
X31652Y42895D01*
X31217Y42244D01*
X31064Y41476D01*
X31217Y40708D01*
X31652Y40057D01*
X32303Y39622D01*
X33071Y39469D01*
X33839Y39622D01*
X34490Y40057D01*
X34925Y40708D01*
X35078Y41476D01*
X34925Y42244D01*
X34490Y42895D01*
X34074Y43173D01*
Y72025D01*
X46754Y84705D01*
X47244Y84607D01*
X48012Y84760D01*
X48663Y85195D01*
X49098Y85846D01*
X49251Y86614D01*
X49098Y87382D01*
X48663Y88033D01*
X48012Y88468D01*
X47244Y88621D01*
D02*
G37*
G36*
X96929Y58096D02*
X96158Y57995D01*
X95440Y57697D01*
X94823Y57224D01*
X94349Y56607D01*
X94052Y55889D01*
X93950Y55118D01*
X94052Y54347D01*
X94349Y53629D01*
X94823Y53012D01*
X95440Y52539D01*
X96158Y52241D01*
X96929Y52140D01*
X97699Y52241D01*
X98418Y52539D01*
X99035Y53012D01*
X99508Y53629D01*
X99805Y54347D01*
X99907Y55118D01*
X99805Y55889D01*
X99508Y56607D01*
X99035Y57224D01*
X98418Y57697D01*
X97699Y57995D01*
X96929Y58096D01*
D02*
G37*
G36*
X72579Y87593D02*
X71811Y87440D01*
X71160Y87005D01*
X70725Y86354D01*
X70572Y85586D01*
X70725Y84818D01*
X71160Y84167D01*
X71811Y83732D01*
X72579Y83579D01*
X73347Y83732D01*
X73998Y84167D01*
X74276Y84582D01*
X76032D01*
X76243Y84313D01*
X76026Y83890D01*
X75998Y83849D01*
X75237Y83698D01*
X74586Y83263D01*
X74151Y82611D01*
X73998Y81843D01*
X74151Y81075D01*
X74586Y80424D01*
X75237Y79989D01*
X76005Y79836D01*
X76774Y79989D01*
X77425Y80424D01*
X77768Y80458D01*
X86004Y72223D01*
Y47325D01*
X81396Y42717D01*
X80905Y42814D01*
X80137Y42662D01*
X79486Y42227D01*
X79051Y41576D01*
X78898Y40808D01*
X79051Y40039D01*
X79486Y39388D01*
X79902Y39110D01*
Y31771D01*
X79978Y31387D01*
X80196Y31062D01*
X93976Y17282D01*
Y12795D01*
X99882D01*
Y18701D01*
X95395D01*
X81909Y32187D01*
Y39110D01*
X82325Y39388D01*
X82760Y40039D01*
X82913Y40808D01*
X82815Y41298D01*
X87717Y46200D01*
X87935Y46525D01*
X88011Y46909D01*
Y54089D01*
X88473Y54281D01*
X94253Y48500D01*
X94052Y48015D01*
X93950Y47244D01*
X94052Y46473D01*
X94349Y45755D01*
X94823Y45138D01*
X95440Y44665D01*
X96158Y44367D01*
X96929Y44266D01*
X97699Y44367D01*
X98418Y44665D01*
X99035Y45138D01*
X99508Y45755D01*
X99805Y46473D01*
X99907Y47244D01*
X99805Y48015D01*
X99508Y48733D01*
X99035Y49350D01*
X98418Y49823D01*
X97699Y50121D01*
X96929Y50222D01*
X96158Y50121D01*
X95672Y49920D01*
X89389Y56203D01*
Y73712D01*
X89313Y74096D01*
X89095Y74421D01*
X77221Y86295D01*
X76895Y86513D01*
X76511Y86589D01*
X74276D01*
X73998Y87005D01*
X73347Y87440D01*
X72579Y87593D01*
D02*
G37*
G36*
X96929Y42348D02*
X96158Y42247D01*
X95440Y41949D01*
X94823Y41476D01*
X94349Y40859D01*
X94052Y40141D01*
X93950Y39370D01*
X94052Y38599D01*
X94349Y37881D01*
X94823Y37264D01*
X95440Y36791D01*
X96158Y36493D01*
X96929Y36392D01*
X97699Y36493D01*
X98418Y36791D01*
X99035Y37264D01*
X99508Y37881D01*
X99805Y38599D01*
X99907Y39370D01*
X99805Y40141D01*
X99508Y40859D01*
X99035Y41476D01*
X98418Y41949D01*
X97699Y42247D01*
X96929Y42348D01*
D02*
G37*
G36*
X97519Y34595D02*
Y32087D01*
X100028D01*
X99997Y32318D01*
X99680Y33084D01*
X99175Y33742D01*
X98517Y34247D01*
X97751Y34565D01*
X97519Y34595D01*
D02*
G37*
G36*
X96338D02*
X96106Y34565D01*
X95340Y34247D01*
X94682Y33742D01*
X94178Y33084D01*
X93860Y32318D01*
X93830Y32087D01*
X96338D01*
Y34595D01*
D02*
G37*
G36*
X100028Y30906D02*
X97519D01*
Y28397D01*
X97751Y28427D01*
X98517Y28745D01*
X99175Y29250D01*
X99680Y29908D01*
X99997Y30674D01*
X100028Y30906D01*
D02*
G37*
G36*
X96338D02*
X93830D01*
X93860Y30674D01*
X94178Y29908D01*
X94682Y29250D01*
X95340Y28745D01*
X96106Y28427D01*
X96338Y28397D01*
Y30906D01*
D02*
G37*
G36*
X96929Y26600D02*
X96158Y26499D01*
X95440Y26201D01*
X94823Y25728D01*
X94349Y25111D01*
X94052Y24393D01*
X93950Y23622D01*
X94052Y22851D01*
X94349Y22133D01*
X94823Y21516D01*
X95440Y21043D01*
X96158Y20745D01*
X96929Y20644D01*
X97699Y20745D01*
X98418Y21043D01*
X99035Y21516D01*
X99508Y22133D01*
X99805Y22851D01*
X99907Y23622D01*
X99805Y24393D01*
X99508Y25111D01*
X99035Y25728D01*
X98418Y26201D01*
X97699Y26499D01*
X96929Y26600D01*
D02*
G37*
G36*
X59646Y23578D02*
Y20276D01*
X62948D01*
X62891Y20713D01*
X62494Y21670D01*
X61863Y22493D01*
X61041Y23124D01*
X60083Y23521D01*
X59646Y23578D01*
D02*
G37*
G36*
X58465D02*
X58027Y23521D01*
X57070Y23124D01*
X56247Y22493D01*
X55616Y21670D01*
X55220Y20713D01*
X55162Y20276D01*
X58465D01*
Y23578D01*
D02*
G37*
G36*
X52795Y23425D02*
X45315D01*
Y15945D01*
X52795D01*
Y23425D01*
D02*
G37*
G36*
X69055Y23458D02*
X68079Y23329D01*
X67169Y22952D01*
X66388Y22353D01*
X65788Y21571D01*
X65411Y20661D01*
X65283Y19685D01*
X65411Y18709D01*
X65788Y17799D01*
X66388Y17018D01*
X67169Y16418D01*
X68079Y16041D01*
X69055Y15913D01*
X70031Y16041D01*
X70941Y16418D01*
X71723Y17018D01*
X72322Y17799D01*
X72699Y18709D01*
X72828Y19685D01*
X72699Y20661D01*
X72322Y21571D01*
X71723Y22353D01*
X70941Y22952D01*
X70031Y23329D01*
X69055Y23458D01*
D02*
G37*
G36*
X62948Y19094D02*
X59646D01*
Y15792D01*
X60083Y15849D01*
X61041Y16246D01*
X61863Y16877D01*
X62494Y17699D01*
X62891Y18657D01*
X62948Y19094D01*
D02*
G37*
G36*
X58465D02*
X55162D01*
X55220Y18657D01*
X55616Y17699D01*
X56247Y16877D01*
X57070Y16246D01*
X58027Y15849D01*
X58465Y15792D01*
Y19094D01*
D02*
G37*
%LPD*%
D10*
X87007Y46909D02*
Y72638D01*
X76005Y81843D02*
X76129Y81720D01*
X77926D01*
X87007Y72638D01*
X88385Y55787D02*
Y73712D01*
X72579Y85586D02*
X76511D01*
X88385Y73712D01*
X80905Y31771D02*
Y40808D01*
X87007Y46909D01*
X80905Y31771D02*
X96929Y15748D01*
X88385Y55787D02*
X96929Y47244D01*
X33071Y41476D02*
Y72441D01*
X47244Y86614D01*
D12*
X70866Y177165D02*
X70866Y177165D01*
X23622Y129921D02*
X41652Y147951D01*
X70866Y148209D02*
Y177165D01*
Y148209D02*
X89153Y129921D01*
X41652Y147951D02*
X70866Y177165D01*
X10293Y129921D02*
X23622D01*
X41652Y123130D02*
Y147951D01*
D45*
X70866Y177165D02*
D03*
X47244D02*
D03*
X98425D02*
D03*
X19685D02*
D03*
D46*
X59055Y19685D02*
D03*
X69055D02*
D03*
D47*
X49055D02*
D03*
D48*
X96929Y55118D02*
D03*
Y47244D02*
D03*
Y39370D02*
D03*
Y31496D02*
D03*
Y23622D02*
D03*
D49*
Y15748D02*
D03*
D50*
X43307Y110236D02*
D03*
X67913Y109055D02*
D03*
X27579Y156988D02*
D03*
X72579Y85586D02*
D03*
X76005Y81843D02*
D03*
X80905Y40808D02*
D03*
X110236Y120768D02*
D03*
X31652D02*
D03*
X90551Y156988D02*
D03*
X33071Y41476D02*
D03*
X47244Y86614D02*
D03*
X68619Y36535D02*
D03*
X37440Y52140D02*
D03*
X55118Y55118D02*
D03*
X66929D02*
D03*
X70031Y62008D02*
D03*
X48228Y69882D02*
D03*
X55118Y62992D02*
D03*
X47815Y50197D02*
D03*
X67913Y48228D02*
D03*
X69882Y67913D02*
D03*
X56102Y69684D02*
D03*
X57183Y82227D02*
D03*
X19705Y31496D02*
D03*
X82108Y71539D02*
D03*
X89153Y129921D02*
D03*
X10293D02*
D03*
X49499Y145669D02*
D03*
X59055D02*
D03*
X41652Y123130D02*
D03*
X68110Y130689D02*
D03*
M02*
