G04*
G04 #@! TF.GenerationSoftware,Altium Limited,Altium Designer,21.9.1 (22)*
G04*
G04 Layer_Color=65535*
%FSLAX25Y25*%
%MOIN*%
G70*
G04*
G04 #@! TF.SameCoordinates,01D30D3D-4D25-4DD3-B430-8D43D7E97BEB*
G04*
G04*
G04 #@! TF.FilePolarity,Positive*
G04*
G01*
G75*
%ADD10C,0.00787*%
%ADD11C,0.00984*%
%ADD12C,0.01968*%
%ADD13C,0.00394*%
%ADD14C,0.00472*%
%ADD15C,0.00500*%
%ADD16C,0.00591*%
%ADD17C,0.00315*%
G36*
X9722Y103839D02*
X11691D01*
Y104626D01*
X10509Y105807D01*
X9722D01*
Y103839D01*
D02*
G37*
G36*
X71949Y116732D02*
X72244Y115551D01*
X71653D01*
X70473Y116732D01*
Y117520D01*
X71949Y116732D01*
D02*
G37*
G36*
X88583Y103839D02*
X90551D01*
Y104626D01*
X89370Y105807D01*
X88583D01*
Y103839D01*
D02*
G37*
D10*
X70473Y117323D02*
X70710Y116437D01*
X71358Y115788D01*
X72244Y115551D01*
X70449Y81555D02*
X69661D01*
X70449D01*
X90551Y103839D02*
X90288Y104823D01*
X89567Y105543D01*
X88583Y105807D01*
X11691Y103839D02*
X11427Y104823D01*
X10706Y105543D01*
X9722Y105807D01*
X72244Y102953D02*
Y116634D01*
X71358Y117520D02*
X72244Y116634D01*
X45866Y117520D02*
X71358D01*
X70473Y117323D02*
Y117520D01*
X45866Y102953D02*
Y117520D01*
Y102953D02*
X72244D01*
X44055Y14685D02*
X74055D01*
Y24685D01*
X44055D02*
X74055D01*
X44055Y14685D02*
Y24685D01*
X108268Y103839D02*
Y116437D01*
X88583Y103839D02*
Y116437D01*
X108268D01*
X88583Y103839D02*
X108268D01*
X29407D02*
Y116437D01*
X9722Y103839D02*
Y116437D01*
X29407D01*
X9722Y103839D02*
X29407D01*
X8439Y190943D02*
Y185039D01*
X12374D01*
X106299D02*
Y190943D01*
X109251D01*
X110235Y189959D01*
Y187991D01*
X109251Y187007D01*
X106299D01*
X108267D02*
X110235Y185039D01*
X63976Y161417D02*
X65944D01*
X64960D01*
Y167321D01*
X63976Y166337D01*
X72832Y161417D02*
X68896D01*
X72832Y165353D01*
Y166337D01*
X71848Y167321D01*
X69880D01*
X68896Y166337D01*
X74800Y167321D02*
Y163385D01*
X76767Y161417D01*
X78735Y163385D01*
Y167321D01*
X49325Y166337D02*
X48342Y167321D01*
X46374D01*
X45390Y166337D01*
Y162401D01*
X46374Y161417D01*
X48342D01*
X49325Y162401D01*
Y164369D01*
X47358D01*
X61005Y32479D02*
X60021Y33463D01*
X58054D01*
X57070Y32479D01*
Y28543D01*
X58054Y27559D01*
X60021D01*
X61005Y28543D01*
Y30511D01*
X59038D01*
X76642Y16770D02*
Y22673D01*
X79594D01*
X80578Y21689D01*
Y19721D01*
X79594Y18737D01*
X76642D01*
X78610D02*
X80578Y16770D01*
X37621Y22735D02*
Y16831D01*
X41557D01*
X108270Y7874D02*
X114173D01*
Y11810D01*
X108270Y13778D02*
Y15745D01*
Y14762D01*
X114173D01*
Y13778D01*
Y15745D01*
Y18697D02*
X108270D01*
X114173Y22633D01*
X108270D01*
Y30505D02*
X114173D01*
Y33456D01*
X113189Y34440D01*
X112205D01*
X111221Y33456D01*
Y30505D01*
Y33456D01*
X110238Y34440D01*
X109254D01*
X108270Y33456D01*
Y30505D01*
X110238Y36408D02*
X114173D01*
X112205D01*
X111221Y37392D01*
X110238Y38376D01*
Y39360D01*
X114173Y45263D02*
Y43296D01*
X113189Y42312D01*
X111221D01*
X110238Y43296D01*
Y45263D01*
X111221Y46247D01*
X112205D01*
Y42312D01*
X110238Y49199D02*
Y51167D01*
X111221Y52151D01*
X114173D01*
Y49199D01*
X113189Y48215D01*
X112205Y49199D01*
Y52151D01*
X114173Y54119D02*
X108270D01*
X112205D02*
X110238Y57071D01*
X112205Y54119D02*
X114173Y57071D01*
Y63958D02*
Y60022D01*
X110238Y63958D01*
X109254D01*
X108270Y62974D01*
Y61006D01*
X109254Y60022D01*
X114173Y71830D02*
X108270D01*
Y74782D01*
X109254Y75765D01*
X111221D01*
X112205Y74782D01*
Y71830D01*
Y73798D02*
X114173Y75765D01*
Y80685D02*
Y78717D01*
X113189Y77733D01*
X111221D01*
X110238Y78717D01*
Y80685D01*
X111221Y81669D01*
X112205D01*
Y77733D01*
X110238Y83637D02*
X114173Y85605D01*
X110238Y87573D01*
X114173Y89540D02*
Y91508D01*
Y90524D01*
X108270D01*
X109254Y89540D01*
X5570Y11023D02*
Y9448D01*
Y10236D01*
X9506D01*
X10293Y9448D01*
Y8661D01*
X9506Y7874D01*
X5570Y12597D02*
X10293D01*
Y15745D01*
X6357Y20468D02*
X5570Y19681D01*
Y18107D01*
X6357Y17320D01*
X9506D01*
X10293Y18107D01*
Y19681D01*
X9506Y20468D01*
X5570Y25191D02*
Y23617D01*
Y24404D01*
X9506D01*
X10293Y23617D01*
Y22830D01*
X9506Y22043D01*
X5570Y26765D02*
X10293D01*
Y29914D01*
X6357Y34637D02*
X5570Y33850D01*
Y32276D01*
X6357Y31488D01*
X9506D01*
X10293Y32276D01*
Y33850D01*
X9506Y34637D01*
X5570Y39360D02*
Y37786D01*
Y38573D01*
X9506D01*
X10293Y37786D01*
Y36999D01*
X9506Y36211D01*
X5570Y40934D02*
X10293D01*
Y44083D01*
X6357Y48806D02*
X5570Y48019D01*
Y46444D01*
X6357Y45657D01*
X9506D01*
X10293Y46444D01*
Y48019D01*
X9506Y48806D01*
X5570Y53528D02*
Y51954D01*
Y52741D01*
X9506D01*
X10293Y51954D01*
Y51167D01*
X9506Y50380D01*
X5570Y55103D02*
X10293D01*
Y58251D01*
X6357Y62974D02*
X5570Y62187D01*
Y60613D01*
X6357Y59826D01*
X9506D01*
X10293Y60613D01*
Y62187D01*
X9506Y62974D01*
D11*
X73721Y122638D02*
X72982Y123064D01*
Y122212D01*
X73721Y122638D01*
X88071Y99508D02*
X87333Y99934D01*
Y99082D01*
X88071Y99508D01*
X9210D02*
X8472Y99934D01*
Y99082D01*
X9210Y99508D01*
D12*
X97913Y7975D02*
X97421Y8827D01*
X96437D01*
X95944Y7975D01*
X96437Y7122D01*
X97421D01*
X97913Y7975D01*
D13*
X80905Y110236D02*
X84449D01*
X52264Y136516D02*
Y139075D01*
X46752Y136516D02*
Y139075D01*
X56345Y136516D02*
Y139075D01*
X61857Y136516D02*
Y139075D01*
X79549Y75273D02*
Y78816D01*
X55183Y84842D02*
Y88386D01*
X73740Y37264D02*
X77284D01*
X31299Y48926D02*
X34843D01*
X25807Y148228D02*
X29351D01*
X88779Y148327D02*
X92323D01*
X17933Y55322D02*
X21477D01*
X33661Y110236D02*
X37205D01*
X19565Y128150D02*
Y131693D01*
X98425Y128150D02*
Y131693D01*
X17705Y39574D02*
X21674D01*
X49166Y149826D02*
X48772Y150220D01*
X47985D01*
X47591Y149826D01*
Y148252D01*
X47985Y147858D01*
X48772D01*
X49166Y148252D01*
X49953Y149826D02*
X50346Y150220D01*
X51134D01*
X51527Y149826D01*
Y149432D01*
X51134Y149039D01*
X50740D01*
X51134D01*
X51527Y148645D01*
Y148252D01*
X51134Y147858D01*
X50346D01*
X49953Y148252D01*
X58882Y149901D02*
X58488Y150294D01*
X57701D01*
X57308Y149901D01*
Y148327D01*
X57701Y147933D01*
X58488D01*
X58882Y148327D01*
X60850Y147933D02*
Y150294D01*
X59669Y149114D01*
X61243D01*
X79606Y82675D02*
X79212Y83068D01*
X78425D01*
X78031Y82675D01*
Y81100D01*
X78425Y80707D01*
X79212D01*
X79606Y81100D01*
X80393Y80707D02*
X81180D01*
X80786D01*
Y83068D01*
X80393Y82675D01*
X55024Y91841D02*
X54630Y92235D01*
X53843D01*
X53449Y91841D01*
Y90267D01*
X53843Y89873D01*
X54630D01*
X55024Y90267D01*
X57385Y89873D02*
X55811D01*
X57385Y91448D01*
Y91841D01*
X56992Y92235D01*
X56204D01*
X55811Y91841D01*
X70107Y35006D02*
X69714Y34612D01*
Y33825D01*
X70107Y33431D01*
X71682D01*
X72075Y33825D01*
Y34612D01*
X71682Y35006D01*
X69714Y37367D02*
Y35793D01*
X70894D01*
X70501Y36580D01*
Y36974D01*
X70894Y37367D01*
X71682D01*
X72075Y36974D01*
Y36186D01*
X71682Y35793D01*
X28167Y48817D02*
X27773Y48423D01*
Y47636D01*
X28167Y47243D01*
X29741D01*
X30134Y47636D01*
Y48423D01*
X29741Y48817D01*
X27773Y51178D02*
X28167Y50391D01*
X28954Y49604D01*
X29741D01*
X30134Y49998D01*
Y50785D01*
X29741Y51178D01*
X29347D01*
X28954Y50785D01*
Y49604D01*
X32022Y148424D02*
X31628Y148031D01*
Y147244D01*
X32022Y146850D01*
X33596D01*
X33989Y147244D01*
Y148031D01*
X33596Y148424D01*
X31628Y149212D02*
Y150786D01*
X32022D01*
X33596Y149212D01*
X33989D01*
X84646Y148523D02*
X84253Y148129D01*
Y147342D01*
X84646Y146949D01*
X86221D01*
X86614Y147342D01*
Y148129D01*
X86221Y148523D01*
X84646Y149310D02*
X84253Y149704D01*
Y150491D01*
X84646Y150884D01*
X85040D01*
X85434Y150491D01*
X85827Y150884D01*
X86221D01*
X86614Y150491D01*
Y149704D01*
X86221Y149310D01*
X85827D01*
X85434Y149704D01*
X85040Y149310D01*
X84646D01*
X85434Y149704D02*
Y150491D01*
X14793Y149508D02*
X12432D01*
Y150689D01*
X12825Y151082D01*
X13612D01*
X14006Y150689D01*
Y149508D01*
Y150295D02*
X14793Y151082D01*
X12432Y151869D02*
Y153444D01*
X12825D01*
X14399Y151869D01*
X14793D01*
X105925Y150295D02*
X103564D01*
Y151476D01*
X103957Y151869D01*
X104745D01*
X105138Y151476D01*
Y150295D01*
Y151082D02*
X105925Y151869D01*
X103957Y152657D02*
X103564Y153050D01*
Y153837D01*
X103957Y154231D01*
X104351D01*
X104745Y153837D01*
Y153444D01*
Y153837D01*
X105138Y154231D01*
X105532D01*
X105925Y153837D01*
Y153050D01*
X105532Y152657D01*
X109607Y106113D02*
X112756D01*
Y107687D01*
X112231Y108212D01*
X110132D01*
X109607Y107687D01*
Y106113D01*
X112756Y109262D02*
X110657D01*
X109607Y110311D01*
X110657Y111361D01*
X112756D01*
X111182D01*
Y109262D01*
X110132Y112410D02*
X109607Y112935D01*
Y113985D01*
X110132Y114509D01*
X110657D01*
X111182Y113985D01*
Y113460D01*
Y113985D01*
X111706Y114509D01*
X112231D01*
X112756Y113985D01*
Y112935D01*
X112231Y112410D01*
X88662Y28543D02*
X91023Y30118D01*
X88662D02*
X91023Y28543D01*
X89055Y30905D02*
X88662Y31298D01*
Y32085D01*
X89055Y32479D01*
X90630D01*
X91023Y32085D01*
Y31298D01*
X90630Y30905D01*
X89055D01*
X4983Y106113D02*
X8131D01*
Y107687D01*
X7607Y108212D01*
X5508D01*
X4983Y107687D01*
Y106113D01*
X8131Y109262D02*
X6032D01*
X4983Y110311D01*
X6032Y111361D01*
X8131D01*
X6557D01*
Y109262D01*
X8131Y114509D02*
Y112410D01*
X6032Y114509D01*
X5508D01*
X4983Y113985D01*
Y112935D01*
X5508Y112410D01*
X70241Y99999D02*
Y96851D01*
X71816D01*
X72341Y97376D01*
Y99475D01*
X71816Y99999D01*
X70241D01*
X73390Y96851D02*
Y98950D01*
X74440Y99999D01*
X75489Y98950D01*
Y96851D01*
Y98425D01*
X73390D01*
X76539Y96851D02*
X77588D01*
X77063D01*
Y99999D01*
X76539Y99475D01*
D14*
X16457Y149114D02*
Y154035D01*
X22953Y149213D02*
Y154134D01*
X101673Y149311D02*
Y154232D01*
X95177Y149213D02*
Y154134D01*
D15*
X71634Y72835D02*
X72835D01*
X45276D02*
X46476D01*
X71634Y45276D02*
X72835D01*
X45276D02*
X46476D01*
X72835Y71634D02*
Y72835D01*
X45276Y71634D02*
Y72835D01*
X72835Y45276D02*
Y46476D01*
X45276Y45276D02*
Y46476D01*
D16*
X101850Y11811D02*
Y59055D01*
X92007D02*
X101850D01*
X92007Y11811D02*
Y59055D01*
Y11811D02*
X101850D01*
X56658Y13019D02*
X59282Y9083D01*
Y13019D02*
X56658Y9083D01*
X60594D02*
X61906D01*
X61250D01*
Y13019D01*
X60594Y12363D01*
X35985Y79645D02*
Y75709D01*
X37953D01*
X38609Y76365D01*
Y78989D01*
X37953Y79645D01*
X35985D01*
X39921D02*
Y75709D01*
X41889D01*
X42545Y76365D01*
Y78989D01*
X41889Y79645D01*
X39921D01*
X43857Y75709D02*
X45169D01*
X44513D01*
Y79645D01*
X43857Y78989D01*
D17*
X79372Y108345D02*
X77010D01*
Y109526D01*
X77404Y109920D01*
X78191D01*
X78585Y109526D01*
Y108345D01*
Y109132D02*
X79372Y109920D01*
Y112281D02*
Y110707D01*
X77798Y112281D01*
X77404D01*
X77010Y111888D01*
Y111100D01*
X77404Y110707D01*
X16740Y53737D02*
X14379D01*
Y54918D01*
X14772Y55311D01*
X15559D01*
X15953Y54918D01*
Y53737D01*
Y54524D02*
X16740Y55311D01*
Y56098D02*
Y56885D01*
Y56492D01*
X14379D01*
X14772Y56098D01*
X40884Y108561D02*
X38523D01*
Y109742D01*
X38916Y110136D01*
X39703D01*
X40097Y109742D01*
Y108561D01*
Y109349D02*
X40884Y110136D01*
X38523Y112497D02*
Y110923D01*
X39703D01*
X39310Y111710D01*
Y112104D01*
X39703Y112497D01*
X40490D01*
X40884Y112104D01*
Y111316D01*
X40490Y110923D01*
X17380Y133465D02*
Y135826D01*
X18560D01*
X18954Y135432D01*
Y134645D01*
X18560Y134252D01*
X17380D01*
X18167D02*
X18954Y133465D01*
X21315Y135826D02*
X20528Y135432D01*
X19741Y134645D01*
Y133858D01*
X20135Y133465D01*
X20922D01*
X21315Y133858D01*
Y134252D01*
X20922Y134645D01*
X19741D01*
X96106Y133465D02*
Y135826D01*
X97287D01*
X97681Y135432D01*
Y134645D01*
X97287Y134252D01*
X96106D01*
X96894D02*
X97681Y133465D01*
X99649D02*
Y135826D01*
X98468Y134645D01*
X100042D01*
X14772Y37450D02*
X16084D01*
X16740Y38106D01*
X16084Y38762D01*
X14772D01*
Y39418D02*
X16740D01*
Y40402D01*
X16412Y40730D01*
X15100D01*
X14772Y40402D01*
Y39418D01*
X16740Y41386D02*
Y42042D01*
Y41714D01*
X14772D01*
X15100Y41386D01*
M02*
