M48
;Layer_Color=9474304
;FILE_FORMAT=2:5
INCH,LZ
;TYPE=PLATED
T1F00S00C0.01181
T2F00S00C0.02953
T3F00S00C0.03937
T4F00S00C0.05906
%
T01
X0019705Y0031496
X0033071Y0041476
X003744Y005214
X0047815Y0050197
X0055118Y0055118
Y0062992
X0056102Y0069684
X0048228Y0069882
X0069882Y0067913
X0070031Y0062008
X0066929Y0055118
X0067913Y0048228
X0068619Y0036535
X0080905Y0040808
X0082108Y0071539
X0089153Y0129921
X0090551Y0156988
X0110236Y0120768
X006811Y0130689
X0067913Y0109055
X0043307Y0110236
X0041652Y012313
X0031652Y0120768
X0010293Y0129921
X0027579Y0156988
X0049499Y0145669
X0059055
X0057183Y0082227
X0047244Y0086614
X0072579Y0085586
X0076005Y0081843
T02
X0096929Y0015748
Y0023622
Y0031496
Y003937
Y0047244
Y0055118
T03
X0049055Y0019685
X0059055
X0069055
T04
X0098425Y0177165
X0070866
X0047244
X0019685
M30
